<svg xmlns="http://www.w3.org/2000/svg" xmlns:xlink="http://www.w3.org/1999/xlink" viewBox="0 0 320 224"><defs><style>.a{isolation:isolate;}.b{fill:#1447e6;}.c,.g{mix-blend-mode:multiply;}.d{fill:url(#a);}.e{fill:#155dfc;}.f{fill:url(#b);}.g{fill:url(#c);}</style><linearGradient id="a" x1="113.09" y1="64.55" x2="89.59" y2="42.55" gradientUnits="userSpaceOnUse"><stop offset="0" stop-color="#fff" stop-opacity="0.5"/><stop offset="1" stop-opacity="0.4"/></linearGradient><linearGradient id="b" x1="249.23" y1="131.42" x2="226.23" y2="193.92" xlink:href="#a"/><linearGradient id="c" x1="61.07" y1="128.61" x2="44.91" y2="170.93" xlink:href="#a"/></defs><title>av-logo-2025</title><g class="a"><polygon class="b" points="132 207 180 207 120 17 72 17 115 153 132 207"/><g class="c"><polygon class="d" points="72 17 100.29 106.59 131 52 120 17 72 17"/></g><polygon class="e" points="60 207 12 207 72 17 120 17 60 207"/><polygon class="b" points="248 207 200 207 260 17 308 17 248 207"/><g class="c"><polygon class="f" points="248 207 268 145 231.31 107.86 200 207 248 207"/></g><polygon class="e" points="200 207 248 207 188 17 140 17 200 207"/><path class="b" d="M175.1,191.48A84.5,84.5,0,0,0,96.5,138c-41.37,0-76.22,29.74-83.5,69H60a39,39,0,0,1,72,0h48S176,193.8,175.1,191.48Z"/><path class="g" d="M81.36,139.35,87.47,120l-50.33,7.38L12,207h1C19.37,172.64,46.86,145.57,81.36,139.35Z"/></g></svg>